<?xml version="1.0" encoding="utf-8"?>
<!-- Generator: Adobe Illustrator 16.0.0, SVG Export Plug-In . SVG Version: 6.00 Build 0)  -->
<!DOCTYPE svg PUBLIC "-//W3C//DTD SVG 1.1//EN" "http://www.w3.org/Graphics/SVG/1.1/DTD/svg11.dtd">
<svg version="1.1" id="Layer_1" xmlns="http://www.w3.org/2000/svg" xmlns:xlink="http://www.w3.org/1999/xlink" x="0px" y="0px"
	 width="5000px" height="5000px" viewBox="0 0 5000 5000" enable-background="new 0 0 5000 5000" xml:space="preserve">
<path fill="#999999" d="M1475,4904.062c-98.498-65.43-185.947-146.128-259.062-239.062
	c-79.691-96.718-153.771-197.926-221.875-303.125c-159.305-233.264-284.132-488.285-370.625-757.188
	c-104.062-312.812-154.688-612.5-154.688-905.312c0-326.562,70.625-612.5,208.75-851.562
	c103.125-187.5,254.062-344.375,437.5-454.375c177.533-111.967,382.623-172.542,592.5-175c73.75,0,151.25,10,235.312,30.312
	c60.625,16.875,134.688,43.75,222.188,77.5c114.688,43.75,178.438,70.625,198.75,77.188c67.188,23.75,124.375,33.75,168.125,33.75
	c33.75,0,80.938-10,134.688-26.875c30.312-10,87.5-30.312,168.438-64.062c80.625-30.312,144.688-53.75,195-74.062
	c77.5-23.438,151.562-43.75,218.75-53.75c80.938-13.438,161.562-16.875,239.062-10c148.125,10,282.812,40.312,404.062,87.5
	c211.875,84.062,383.438,218.75,511.562,407.188c-54.056,33.2-104.809,71.5-151.562,114.375
	c-101.816,89.721-188.27,195.492-255.938,313.125c-89.484,160.416-135.787,341.318-134.375,525
	c3.125,225.625,60.625,424.062,175,595.625c80.625,124.688,188.438,232.188,319.688,320c64.062,43.75,121.25,73.75,175,94.062
	c-24.277,77.614-52.438,153.961-84.375,228.75c-71.421,168.018-158.141,329.113-259.062,481.25
	c-90.625,131.25-161.562,229.062-215.312,293.125c-84.375,100.938-165,175-245.625,228.75
	c-89.985,59.245-195.389,90.758-303.125,90.625c-72.812,3.125-145.625-6.25-215.312-26.562c-60.4-19.695-119.842-42.22-178.125-67.5
	c-61.377-27.471-124.418-51.059-188.75-70.625c-79.104-20.408-160.495-30.596-242.188-30.312c-84.375,0-165,10.312-242.5,30.312
	c-64.375,18.125-127.188,40.625-188.438,67.5c-87.5,36.875-144.688,60.312-178.125,70.625
	c-66.833,20.421-135.861,32.801-205.625,36.875c-107.5,0-208.75-30.312-309.375-94.062H1475z M2902.188,1060.312
	c-141.25,70.625-275.938,100.938-410.625,90.625c-20.312-134.375,0-272.5,57.188-424.062c50.625-127.812,117.812-245.625,208.75-350
	c95.314-108.64,210.775-197.783,340-262.5C3235.312,43.75,3366.562,6.875,3491.25,0c16.875,141.25,0,282.812-50.625,430.938
	c-47.443,133.561-117.996,257.742-208.438,366.875C3142.096,907.773,3029.595,997.263,2902.188,1060.312z"/>
</svg>
