<?xml version="1.0" encoding="utf-8"?>
<!-- Generator: Adobe Illustrator 16.0.0, SVG Export Plug-In . SVG Version: 6.00 Build 0)  -->
<!DOCTYPE svg PUBLIC "-//W3C//DTD SVG 1.1//EN" "http://www.w3.org/Graphics/SVG/1.1/DTD/svg11.dtd">
<svg version="1.1" id="Layer_1" xmlns="http://www.w3.org/2000/svg" xmlns:xlink="http://www.w3.org/1999/xlink" x="0px" y="0px"
	 width="5000px" height="5000px" viewBox="0 0 5000 5000" enable-background="new 0 0 5000 5000" xml:space="preserve">
<path fill="#607D8B" d="M254.375,0c-6.25,19.375-12.5,38.438-12.5,64.062V4903.75c0,45,12.5,70.625,38.125,96.25l2378.125-2519.375
	L254.375,0z M2818.75,2647.5l615,634.375l-878.125,500c0,0-1115.625,634.375-1730.625,987.5L2818.75,2647.5L2818.75,2647.5z
	 M2985.312,2474.375l660,685.938c103.125-57.812,910.312-519.375,1025.625-583.438c121.875-70.312,109.375-166.562,6.25-217.812
	c-95.938-53.125-903.125-515.625-1025-590.625L2985,2475L2985.312,2474.375z M2818.438,2307.812l621.875-660.312l-887.5-506.25
	c0,0-1446.562-827.5-1927.812-1103.75l2193.75,2270.625L2818.438,2307.812z"/>
</svg>
