<?xml version="1.0" encoding="utf-8"?>
<!-- Generator: Adobe Illustrator 16.0.0, SVG Export Plug-In . SVG Version: 6.00 Build 0)  -->
<!DOCTYPE svg PUBLIC "-//W3C//DTD SVG 1.1//EN" "http://www.w3.org/Graphics/SVG/1.1/DTD/svg11.dtd">
<svg version="1.1" id="Layer_1" xmlns="http://www.w3.org/2000/svg" xmlns:xlink="http://www.w3.org/1999/xlink" x="0px" y="0px"
	 width="5000px" height="5000px" viewBox="0 0 5000 5000" enable-background="new 0 0 5000 5000" xml:space="preserve">
<path fill="#FF3300" d="M241.562,2540.625c-10.625,0-19.375,9.375-20.938,20.625l-48.75,449.062l48.75,439.062
	c1.562,11.875,10.312,20.312,20.938,20.312c10.312,0,18.75-8.438,20.625-20.312l53.125-439.062l-56.25-449.062
	c0-11.875-9.375-20.625-18.75-20.625 M52.812,2713.125c-12.5,0-18.75,7.812-21.875,19.375l-34.375,278.125l34.375,272.5
	c0,11.562,9.375,19.688,18.75,19.688s18.75-9.375,21.875-21.875l43.75-275l-43.75-278.125c0-12.5-9.375-18.75-18.75-18.75
	 M434.062,2452.812c-12.5,0-25,9.375-25,21.875l-43.75,534.375l46.875,512.5c0,12.5,9.375,25,25,25c12.5,0,21.875-12.5,25-25
	l53.125-515.625l-53.125-531.25c-3.125-12.5-12.5-25-25-25 M634.062,2430.938c-15.625,0-28.125,12.5-31.25,28.125L562.5,3009.375
	l43.75,530.312c3.125,16.25,15.625,28.75,31.25,28.75s28.125-12.5,31.25-31.25l50-528.125l-50-546.875
	c0-15.625-12.5-28.125-28.125-28.125L634.062,2430.938z M875,2505.938c-0.938-18.75-15.625-31.25-33.125-31.25
	c-18.75,0-33.125,12.5-34.375,31.25l-45,506.562l41.562,534.375c0,18.75,15.625,32.812,33.125,32.812
	c15.625,0,31.25-14.375,31.25-33.125l46.875-534.375l-46.875-509.375L875,2505.938z M1043.75,2149.688
	c-20.938,0-37.5,18.75-37.5,37.5l-43.75,825l38.75,534.375c0,18.75,16.875,34.375,37.5,34.375c19.688,0,36.25-18.75,37.5-37.5
	l43.75-534.375l-43.75-828.125c-1.562-21.875-18.125-37.5-37.5-37.5 M1238.75,1952.812c-21.875,0-40.625,18.75-42.188,40.625
	l-37.5,1015.625l34.375,531.25c0,25,18.75,43.75,40.625,43.75s40.625-18.75,43.75-43.75l40.625-531.25l-40.625-1012.5
	c-3.125-25-21.875-43.75-43.75-43.75 M1440.312,1859.062c-25,0-43.75,18.75-46.875,43.75l-34.375,1100l34.375,525
	c3.125,25,21.875,46.875,46.875,46.875s46.875-21.875,46.875-46.875l40.625-525l-40.625-1100c0-25-21.875-46.875-46.875-46.875
	 M1699.688,1865.312c0-28.125-21.875-50-50-50c-25,0-50,21.875-50,50l-31.25,1134.375l31.25,521.875c3.125,28.125,25,50,53.125,50
	s50-21.875,50-50l34.375-521.875l-34.375-1137.5L1699.688,1865.312z M1855.938,1837.188c-28.125,0-53.125,25-53.125,53.125
	l-31.25,1109.375l31.25,515.625c0,31.25,25,53.125,53.125,53.125s53.125-25,53.125-56.25l31.25-515.625l-34.375-1106.25
	c0-31.25-25-56.25-56.25-56.25 M2059.062,1868.438c-34.375,0-59.375,28.125-59.375,59.375L1978.125,3000l28.125,515.625
	c0,31.25,25,57.812,59.375,57.812c31.25,0,56.25-25,59.375-59.375l25-509.375l-28.125-1065.625
	c-2.5-34.375-28.125-59.375-59.375-59.375 M2309.375,1682.812c-9.375-6.25-21.875-9.375-34.375-9.375s-25,3.125-34.375,9.375
	c-18.75,11.25-31.25,31.25-31.25,53.125v12.5L2187.5,3009.375L2211.562,3520v1.562c1.562,12.5,6.25,28.125,15.625,37.5
	c11.875,12.5,29.375,21.875,48.75,21.875c16.875,0,32.812-9.375,43.75-18.75c11.875-12.5,18.75-28.125,18.75-46.875l3.125-50
	l24.375-459.375l-28.125-1268.75c0-21.875-12.5-40.625-28.125-50L2309.375,1682.812z M2519.062,1568.438
	c-9.375-9.375-18.75-12.5-31.25-12.5c-15.625,0-31.25,3.125-43.75,12.5c-15.625,12.5-25,31.25-25,50v6.25l-28.125,1378.125
	l15.625,253.125l12.5,246.875c0,34.375,31.25,65.625,68.75,65.625s68.75-31.25,68.75-68.75l31.25-503.125l-31.25-1383.75
	c0-25-15.625-45.938-34.375-57.812 M4384.688,2342.5c-84.375,0-165.625,17.812-237.5,48.438c-50-553.125-512.5-987.5-1081.25-987.5
	c-137.5,0-271.875,28.125-393.75,75c-46.875,18.75-56.25,37.5-59.375,75v1953.125c3.125,37.5,31.25,68.75,68.75,71.875h1706.25
	c337.5,3.125,612.5-268.75,612.5-609.375s-275-615.625-612.5-615.625"/>
</svg>
